 <svg version="1.0" xmlns="http://www.w3.org/2000/svg" width="700.000000pt" height="340.000000pt" viewBox="0 0 700.000000 340.000000" preserveAspectRatio="xMidYMid meet">
<metadata>
Created by potrace 1.12, written by Peter Selinger 2001-2015
</metadata>
<g transform="translate(0.000000,340.000000) scale(0.100000,-0.100000)" fill="#000000" stroke="none">
<path d="M2164 3238 c-33 -35 -111 -121 -174 -193 -63 -71 -144 -161 -180
-200 -36 -39 -112 -124 -170 -190 -172 -194 -292 -327 -338 -373 -35 -34 -40
-44 -26 -49 40 -15 53 -2 654 670 77 86 110 117 125 115 16 -2 20 2 18 22 -2
19 19 47 86 120 85 90 90 94 115 82 33 -15 33 -42 1 -72 -14 -13 -25 -28 -25
-35 0 -6 27 -35 61 -64 l60 -53 35 33 c31 30 35 32 59 19 32 -17 32 -40 0 -70
-14 -13 -25 -28 -25 -33 0 -12 112 -117 126 -117 5 0 20 14 32 30 27 36 41 37
70 7 l22 -23 -30 -30 c-16 -16 -30 -34 -30 -41 0 -13 113 -113 128 -113 6 0
19 10 29 23 28 36 42 41 64 21 26 -23 24 -43 -8 -76 -26 -27 -26 -28 -8 -48
27 -30 60 -22 61 13 1 15 11 38 23 50 11 13 21 29 21 36 0 12 -92 102 -112
110 -5 2 -25 -11 -43 -29 -33 -32 -35 -33 -60 -16 -32 21 -32 28 7 72 l32 36
-59 54 c-33 29 -64 53 -70 54 -5 0 -24 -14 -42 -32 l-33 -32 -27 27 -27 27 27
28 c15 15 27 35 27 44 0 8 -27 38 -60 67 l-60 52 -35 -37 -36 -38 -26 26 -26
26 27 34 c14 19 26 40 26 46 0 6 -19 27 -42 46 -64 55 -91 50 -164 -26z"></path>
<path d="M2135 2960 c-9 -15 24 -50 47 -50 23 0 23 12 1 32 -29 24 -41 29 -48
18z"></path>
<path d="M5525 2870 c-16 -4 -57 -13 -90 -21 -182 -40 -385 -160 -535 -316
-127 -131 -206 -260 -259 -423 -80 -240 -80 -479 -1 -720 60 -182 146 -316
297 -460 222 -214 475 -315 783 -313 366 2 684 163 910 461 51 67 150 255 150
285 0 9 4 18 9 21 5 3 11 18 14 33 3 16 13 60 22 98 24 100 25 363 2 463 -55
233 -140 393 -297 556 -95 99 -162 151 -270 209 -134 72 -190 92 -340 122 -80
16 -341 19 -395 5z m479 -94 c183 -55 332 -143 463 -273 70 -70 172 -211 205
-283 37 -80 65 -159 77 -215 7 -33 17 -79 22 -102 12 -57 11 -249 -1 -315 -37
-185 -75 -283 -166 -423 -108 -166 -251 -291 -429 -376 -550 -263 -1199 -17
-1440 546 -41 96 -47 118 -70 240 -94 512 234 1041 742 1195 114 34 158 39
338 36 151 -3 180 -6 259 -30z"></path>
<path d="M5705 2761 c-10 -17 4 -31 31 -31 19 0 25 5 22 18 -4 19 -43 29 -53
13z"></path>
<path d="M5597 2754 c-11 -12 3 -24 29 -24 15 0 24 6 24 15 0 15 -40 21 -53 9z"></path>
<path d="M5817 2754 c-11 -12 3 -24 29 -24 15 0 24 6 24 15 0 15 -40 21 -53 9z"></path>
<path d="M5500 2735 c-10 -12 -9 -16 4 -21 18 -7 49 13 40 27 -8 14 -30 11
-44 -6z"></path>
<path d="M5920 2725 c0 -12 7 -15 25 -13 14 2 26 8 26 13 0 6 -12 11 -26 13
-18 2 -25 -1 -25 -13z"></path>
<path d="M5390 2705 c0 -11 7 -15 23 -13 12 2 22 8 22 13 0 6 -10 11 -22 13
-16 2 -23 -2 -23 -13z"></path>
<path d="M6024 2709 c-10 -16 22 -43 42 -35 16 6 16 8 -1 26 -20 23 -31 25
-41 9z"></path>
<path d="M5295 2676 c-19 -14 -19 -15 -2 -21 22 -9 50 2 45 17 -6 18 -22 20
-43 4z"></path>
<path d="M6124 2669 c-10 -16 22 -43 42 -35 16 6 16 8 -1 26 -20 23 -31 25
-41 9z"></path>
<path d="M5202 2628 c-13 -13 -16 -38 -4 -38 13 1 42 27 42 39 0 15 -23 14
-38 -1z"></path>
<path d="M6220 2607 c0 -7 10 -18 21 -25 28 -18 46 -1 24 22 -19 19 -45 21
-45 3z"></path>
<path d="M5106 2561 c-12 -13 -14 -21 -6 -26 13 -8 52 24 44 36 -8 14 -19 11
-38 -10z"></path>
<path d="M6315 2551 c-3 -5 2 -17 11 -26 22 -21 44 -4 24 20 -14 17 -26 19
-35 6z"></path>
<path d="M5029 2501 c-17 -14 -21 -23 -13 -31 8 -8 17 -6 35 9 17 14 21 23 13
31 -8 8 -17 6 -35 -9z"></path>
<path d="M6392 2474 c4 -20 34 -41 45 -31 10 11 -11 41 -31 45 -12 3 -17 -2
-14 -14z"></path>
<path d="M4950 2425 c-10 -12 -10 -19 -2 -27 15 -15 48 14 38 31 -10 15 -21
14 -36 -4z"></path>
<path d="M5595 2424 c-38 -8 -101 -31 -140 -49 -171 -83 -277 -212 -335 -410
-13 -47 -9 -261 7 -317 26 -92 87 -191 165 -270 43 -43 78 -83 78 -87 0 -27
-34 -31 -206 -29 l-179 3 0 49 c0 35 -5 52 -17 60 -28 17 -36 -2 -40 -89 l-3
-80 248 -3 247 -2 0 68 0 69 -83 84 c-128 129 -172 236 -171 409 0 115 13 166
66 260 68 123 157 198 298 253 65 26 89 30 180 30 162 1 282 -48 396 -163 110
-109 159 -229 159 -390 0 -170 -53 -289 -180 -408 l-76 -71 3 -68 3 -68 245 0
245 0 2 77 c1 55 -3 80 -13 89 -26 22 -43 3 -46 -53 l-3 -53 -185 0 c-183 0
-185 0 -188 22 -2 16 15 41 65 91 80 82 125 153 160 254 21 61 25 92 25 188 1
99 -3 125 -25 188 -36 103 -82 176 -158 252 -140 140 -358 205 -544 164z"></path>
<path d="M6470 2397 c0 -8 9 -22 19 -31 26 -23 39 -2 15 25 -20 22 -34 25 -34
6z"></path>
<path d="M4880 2329 c-7 -11 -9 -23 -6 -26 8 -9 47 28 40 38 -9 15 -23 10 -34
-12z"></path>
<path d="M5693 2313 c-12 -2 -38 -22 -58 -44 -33 -37 -44 -56 -74 -133 -10
-24 -15 -27 -39 -22 -15 4 -50 10 -79 13 -69 7 -137 -24 -158 -72 -21 -52 -5
-95 84 -216 11 -16 10 -23 -16 -56 -51 -67 -64 -93 -70 -142 -5 -43 -2 -51 25
-82 l30 -34 108 0 c105 0 107 -1 117 -25 42 -110 97 -170 152 -170 31 0 69 20
93 50 19 22 54 91 62 120 6 25 8 25 111 25 83 0 109 4 130 18 28 19 49 56 49
88 0 30 -37 102 -77 148 l-35 42 36 44 c42 51 75 119 76 154 0 40 -43 87 -95
101 -38 11 -60 11 -112 1 -36 -7 -68 -9 -71 -6 -3 2 -13 28 -23 56 -10 28 -30
66 -44 85 -24 32 -74 66 -92 63 -4 -1 -18 -4 -30 -6z m65 -58 c30 -25 82 -116
82 -142 0 -8 -12 -18 -27 -24 -16 -6 -41 -17 -57 -25 -16 -8 -34 -14 -41 -14
-7 0 -25 6 -41 14 -16 8 -41 19 -56 25 -34 13 -34 17 -3 85 24 53 74 106 100
106 7 0 27 -11 43 -25z m-248 -174 c23 -7 25 -11 22 -62 -5 -78 -7 -83 -67
-128 l-54 -41 -30 37 c-33 40 -71 114 -71 137 0 8 15 26 33 40 26 21 42 26 87
25 30 -1 66 -4 80 -8z m570 -6 c35 -18 47 -56 31 -93 -25 -54 -73 -122 -88
-122 -8 0 -36 18 -62 41 -43 35 -50 47 -57 92 -4 29 -8 59 -9 67 0 29 137 40
185 15z m-452 -31 c36 -15 36 -16 17 -30 -11 -9 -32 -22 -47 -30 l-28 -15 0
39 c0 34 6 52 17 52 2 0 20 -7 41 -16z m235 -17 c17 -51 3 -59 -48 -31 -25 14
-45 28 -45 30 0 8 64 33 74 30 6 -1 14 -14 19 -29z m-96 -43 c26 -15 63 -37
81 -51 32 -24 32 -24 32 -113 l0 -89 -42 -28 c-24 -16 -60 -38 -81 -48 l-38
-20 -66 35 c-101 53 -103 56 -103 154 0 83 0 85 31 107 26 18 129 78 136 79 1
0 24 -12 50 -26z m-251 -162 c3 -52 -10 -61 -42 -31 -30 28 -30 42 -1 62 32
23 41 16 43 -31z m452 25 l22 -24 -26 -26 c-15 -15 -31 -27 -35 -27 -5 0 -9
23 -9 50 0 57 13 64 48 27z m-494 -102 c46 -41 50 -49 57 -102 8 -70 1 -78
-74 -87 -37 -5 -63 -2 -89 9 -50 20 -63 45 -46 93 14 43 77 132 93 132 5 -1
32 -21 59 -45z m598 -15 c67 -95 61 -143 -21 -170 -55 -18 -157 6 -153 36 15
118 12 112 66 153 28 22 56 39 61 37 6 -1 27 -26 47 -56z m-449 -85 c20 -10
37 -22 37 -26 0 -11 -59 -32 -75 -25 -10 3 -15 18 -15 42 0 19 3 34 8 32 4 -2
24 -12 45 -23z m247 8 c-1 -58 -26 -77 -71 -53 -27 15 -24 25 14 48 40 26 57
27 57 5z m-92 -83 c22 -11 46 -20 52 -20 15 0 12 -26 -10 -75 -49 -108 -114
-137 -164 -72 -21 27 -66 118 -66 133 0 9 104 53 126 53 11 1 39 -8 62 -19z"></path>
<path d="M5674 1953 c-12 -2 -36 -20 -55 -39 -31 -32 -34 -40 -34 -96 0 -58 2
-62 39 -94 34 -30 46 -34 94 -34 50 0 58 3 93 39 35 34 39 44 39 87 0 101 -73
157 -176 137z m86 -41 c97 -48 64 -187 -45 -187 -48 0 -76 19 -95 66 -17 40 9
100 53 122 40 20 44 20 87 -1z"></path>
<path d="M6530 2306 c0 -22 29 -41 42 -28 8 8 8 15 -2 27 -16 19 -40 20 -40 1z"></path>
<path d="M4827 2253 c-10 -9 -8 -43 2 -43 5 0 14 7 21 15 17 21 -4 48 -23 28z"></path>
<path d="M6595 2217 c-8 -19 12 -50 26 -41 13 7 11 17 -5 40 -14 18 -15 18
-21 1z"></path>
<path d="M4780 2149 c-8 -14 -9 -24 -2 -31 14 -14 32 -1 32 22 0 28 -17 33
-30 9z"></path>
<path d="M6630 2117 c0 -19 27 -53 35 -45 12 12 -4 58 -20 58 -8 0 -15 -6 -15
-13z"></path>
<path d="M4747 2053 c-13 -12 -7 -43 8 -43 9 0 15 9 15 25 0 24 -10 32 -23 18z"></path>
<path d="M6674 2016 c-8 -21 3 -49 16 -41 5 3 10 15 10 25 0 25 -18 36 -26 16z"></path>
<path d="M4720 1946 c-14 -18 -6 -50 13 -44 15 6 22 37 10 49 -6 6 -15 4 -23
-5z"></path>
<path d="M6692 1895 c2 -14 8 -26 13 -26 6 0 11 12 13 26 2 18 -1 25 -13 25
-12 0 -15 -7 -13 -25z"></path>
<path d="M4704 1836 c-8 -21 3 -49 16 -41 5 3 10 15 10 25 0 25 -18 36 -26 16z"></path>
<path d="M6702 1783 c4 -36 33 -39 33 -3 0 16 -6 26 -18 28 -15 3 -18 -2 -15
-25z"></path>
<path d="M4700 1710 c0 -20 5 -30 15 -30 10 0 15 10 15 30 0 20 -5 30 -15 30
-10 0 -15 -10 -15 -30z"></path>
<path d="M6704 1696 c-8 -21 3 -49 16 -41 5 3 10 15 10 25 0 25 -18 36 -26 16z"></path>
<path d="M4705 1620 c-7 -11 12 -50 25 -50 16 0 21 19 10 40 -12 22 -25 26
-35 10z"></path>
<path d="M6690 1589 c-8 -14 -9 -24 -2 -31 14 -14 32 -1 32 22 0 28 -17 33
-30 9z"></path>
<path d="M4726 1521 c-8 -12 10 -51 24 -51 20 0 21 23 2 42 -13 13 -22 16 -26
9z"></path>
<path d="M6667 1483 c-10 -9 -9 -43 1 -43 12 0 32 23 32 37 0 14 -22 18 -33 6z"></path>
<path d="M4760 1401 c0 -21 25 -46 34 -33 9 15 -5 52 -20 52 -8 0 -14 -8 -14
-19z"></path>
<path d="M6630 1375 c-7 -8 -9 -22 -6 -31 5 -13 9 -14 21 -4 17 14 20 36 6 44
-5 3 -14 -1 -21 -9z"></path>
<path d="M4802 1304 c3 -19 34 -41 43 -32 9 9 -18 48 -33 48 -7 0 -12 -7 -10
-16z"></path>
<path d="M6580 1275 c-19 -23 -1 -39 21 -19 10 9 19 21 19 26 0 13 -27 9 -40
-7z"></path>
<path d="M4856 1221 c-3 -5 2 -19 12 -32 21 -26 34 -15 21 19 -9 23 -24 29
-33 13z"></path>
<path d="M6525 1180 c-21 -23 -12 -39 13 -24 19 12 29 44 14 44 -5 0 -17 -9
-27 -20z"></path>
<path d="M4920 1122 c0 -5 9 -17 19 -26 22 -20 40 -4 21 19 -13 16 -40 20 -40
7z"></path>
<path d="M6450 1095 c-22 -26 4 -43 30 -20 20 18 18 35 -4 35 -8 0 -19 -7 -26
-15z"></path>
<path d="M4995 1050 c-7 -11 21 -50 37 -50 15 0 8 27 -11 44 -13 12 -21 14
-26 6z"></path>
<path d="M6385 1026 c-12 -9 -16 -19 -11 -31 6 -18 8 -17 29 3 26 27 12 50
-18 28z"></path>
<path d="M5075 979 c-8 -13 13 -39 31 -39 21 0 17 23 -6 37 -13 8 -21 9 -25 2z"></path>
<path d="M6297 952 c-16 -17 -14 -32 4 -32 14 0 39 31 34 41 -9 14 -20 11 -38
-9z"></path>
<path d="M5164 908 c-9 -15 27 -41 40 -28 6 6 5 15 -4 25 -15 18 -26 19 -36 3z"></path>
<path d="M6205 890 c-17 -18 -17 -20 -1 -26 20 -8 52 19 42 35 -10 16 -21 14
-41 -9z"></path>
<path d="M5256 861 c-8 -12 31 -44 44 -36 8 5 6 13 -6 26 -19 21 -30 24 -38
10z"></path>
<path d="M6101 836 c-7 -8 -8 -17 -3 -20 15 -9 52 5 52 20 0 18 -34 18 -49 0z"></path>
<path d="M5355 820 c-9 -15 14 -40 36 -40 24 0 24 19 2 36 -22 16 -30 17 -38
4z"></path>
<path d="M5997 804 c-4 -4 -7 -11 -7 -16 0 -13 50 -6 53 7 2 12 -36 19 -46 9z"></path>
<path d="M5457 784 c-11 -12 3 -24 29 -24 15 0 24 6 24 15 0 15 -40 21 -53 9z"></path>
<path d="M5893 774 c-10 -27 14 -40 37 -19 11 10 17 22 14 26 -9 15 -44 10
-51 -7z"></path>
<path d="M5565 760 c-8 -13 20 -24 41 -16 20 8 9 26 -16 26 -10 0 -22 -5 -25
-10z"></path>
<path d="M5675 760 c-4 -7 -3 -16 3 -22 14 -14 47 -6 47 12 0 18 -40 26 -50
10z"></path>
<path d="M5780 755 c0 -12 7 -15 25 -13 14 2 26 8 26 13 0 6 -12 11 -26 13
-18 2 -25 -1 -25 -13z"></path>
<path d="M2254 2855 c-9 -23 33 -62 50 -45 7 7 2 18 -16 37 -25 25 -28 25 -34
8z"></path>
<path d="M2356 2751 c-8 -12 41 -54 53 -46 15 9 14 21 -5 39 -17 17 -40 21
-48 7z"></path>
<path d="M2475 2651 c-7 -12 33 -51 52 -51 21 0 15 27 -9 44 -26 18 -35 20
-43 7z"></path>
<path d="M2990 2625 c-10 -12 -9 -16 6 -21 61 -19 78 -31 100 -66 23 -37 44
-43 44 -13 0 16 -108 115 -126 115 -6 0 -17 -7 -24 -15z"></path>
<path d="M2586 2551 c-9 -15 23 -36 36 -23 5 5 7 15 4 21 -9 13 -33 14 -40 2z"></path>
<path d="M2969 2556 c-4 -4 -115 -29 -489 -110 -58 -13 -220 -49 -360 -80
-140 -31 -286 -63 -325 -72 -38 -8 -137 -30 -220 -49 -82 -18 -235 -52 -340
-75 -104 -22 -206 -45 -225 -50 -51 -13 -186 -43 -275 -60 -33 -7 -71 -16 -85
-20 -14 -4 -52 -13 -85 -20 -83 -16 -197 -41 -275 -60 -19 -4 -63 -14 -98 -21
-82 -17 -97 -34 -94 -106 3 -75 14 -87 73 -80 47 6 48 5 55 -25 7 -36 -13 -58
-53 -58 -32 0 -38 -22 -24 -88 20 -91 19 -90 100 -80 19 2 26 -3 33 -27 9 -34
-9 -55 -48 -55 -33 0 -43 -19 -34 -65 26 -118 20 -110 80 -110 l55 0 0 -35 c0
-31 -3 -35 -30 -38 -48 -6 -57 -19 -49 -71 3 -25 13 -61 20 -80 14 -33 15 -33
59 -27 41 7 46 5 56 -18 17 -36 6 -53 -41 -61 -45 -8 -60 -27 -42 -56 7 -10
12 -34 12 -53 0 -18 8 -43 18 -55 15 -19 21 -20 52 -11 48 14 47 14 59 -21 14
-40 9 -48 -40 -55 -23 -4 -43 -13 -46 -21 -10 -26 22 -116 49 -136 27 -20 45
-19 183 12 68 15 214 48 340 75 155 34 253 56 338 76 23 5 483 107 1022 225
539 119 993 221 1008 227 37 14 49 47 41 114 -8 62 -23 81 -53 65 -34 -19 -61
-13 -72 16 -14 38 -6 49 41 57 l42 7 -5 47 c-3 26 -9 63 -14 82 -9 33 -11 35
-53 36 -25 1 -51 2 -57 3 -8 1 -13 15 -13 36 0 36 2 37 65 47 17 3 20 11 18
43 -3 58 -24 126 -40 132 -7 3 -27 -1 -45 -8 -27 -11 -32 -10 -44 6 -8 10 -14
29 -14 41 0 17 8 23 33 28 57 11 71 27 59 67 -6 19 -14 52 -19 74 l-8 40 -53
-3 c-49 -3 -53 -2 -62 24 -13 34 2 54 40 54 42 0 55 22 41 69 -6 21 -11 50
-11 63 0 38 -23 51 -74 44 -43 -7 -44 -6 -51 23 -8 39 -3 47 40 55 20 4 39 14
42 23 9 22 -14 104 -35 125 -18 17 -64 33 -73 24z m51 -96 c0 -27 -4 -30 -41
-36 -22 -4 -43 -13 -46 -19 -2 -7 4 -46 14 -87 l18 -73 49 3 c52 4 66 -5 66
-44 0 -23 -17 -34 -55 -34 -39 0 -44 -19 -28 -90 8 -36 17 -71 19 -79 3 -10
16 -12 54 -7 48 6 51 5 61 -20 12 -33 0 -49 -51 -62 -39 -10 -41 -18 -22 -106
12 -61 32 -82 60 -67 33 18 59 13 66 -11 12 -46 7 -58 -22 -58 -46 0 -66 -21
-58 -61 3 -19 9 -51 12 -71 9 -50 21 -59 69 -48 44 10 50 7 59 -32 7 -29 -14
-48 -52 -48 -38 0 -42 -21 -23 -100 l18 -75 54 0 c53 0 54 0 57 -32 4 -35 -1
-37 -133 -63 -33 -7 -75 -17 -94 -22 -30 -9 -36 -8 -52 13 l-18 24 -10 -28
c-6 -15 -16 -29 -23 -31 -7 -2 -38 -9 -68 -15 -30 -7 -75 -17 -100 -22 -25 -6
-64 -15 -87 -20 -24 -5 -63 -13 -88 -19 -25 -5 -64 -14 -87 -19 -24 -6 -83
-19 -133 -30 -49 -11 -409 -90 -800 -176 -390 -86 -737 -163 -771 -170 -77
-19 -84 -19 -100 2 -12 17 -13 16 -22 -8 -9 -22 -20 -28 -99 -43 -48 -10 -105
-23 -127 -29 -34 -10 -40 -9 -53 8 -23 32 -12 58 27 68 19 5 39 12 43 17 10 9
-12 158 -24 166 -5 3 -27 0 -50 -6 -47 -13 -59 -6 -62 35 -2 25 3 30 35 40 56
15 61 24 47 81 -25 105 -21 99 -74 96 -51 -4 -65 6 -65 44 0 22 17 34 50 34
37 0 43 24 28 102 l-15 73 -55 -2 c-54 -3 -56 -2 -61 25 -7 33 7 48 53 60 31
8 35 12 32 38 -2 34 -20 102 -32 124 -4 8 -16 13 -26 12 -11 -2 -32 -5 -49 -5
-27 -2 -30 1 -33 33 -3 35 -2 36 40 45 l43 10 -3 47 c-4 71 -25 123 -48 121
-80 -8 -78 -9 -88 20 -13 35 -1 46 61 59 26 6 66 14 88 19 83 19 115 22 129 9
16 -13 40 -5 31 11 -4 5 0 11 7 13 73 21 153 39 328 75 30 7 71 16 90 21 19 4
60 13 90 20 53 10 81 17 188 41 73 16 133 30 177 39 22 5 63 14 90 20 28 6 70
16 95 21 25 6 65 15 90 20 25 6 64 15 88 20 61 13 126 28 175 39 23 5 148 32
277 60 129 28 273 60 320 71 225 51 213 49 230 34 22 -20 30 -19 30 4 0 16 16
23 98 41 53 12 111 25 127 29 41 11 65 -3 65 -39z"></path>
<path d="M2730 2301 c0 -31 16 -49 30 -35 13 13 0 64 -16 64 -9 0 -14 -11 -14
-29z"></path>
<path d="M2764 2175 c-8 -20 13 -68 26 -60 15 9 12 51 -5 65 -12 10 -16 9 -21
-5z"></path>
<path d="M1625 2054 c-80 -12 -188 -66 -252 -127 -113 -106 -165 -223 -166
-372 -1 -98 8 -137 55 -233 40 -82 110 -159 187 -202 57 -33 79 -59 67 -78 -3
-5 -31 -14 -63 -21 -32 -7 -95 -21 -141 -32 -46 -11 -87 -17 -92 -14 -6 4 -10
19 -10 34 0 33 -23 56 -46 47 -13 -5 -15 -13 -9 -39 4 -17 10 -48 14 -67 5
-26 12 -35 26 -34 17 1 335 69 372 80 15 4 7 91 -9 111 -6 7 -31 23 -57 35
-59 29 -169 140 -199 200 -55 112 -66 232 -31 339 38 117 89 188 179 249 268
182 630 40 706 -278 17 -74 17 -128 0 -196 -21 -78 -47 -133 -91 -190 -35 -46
-37 -52 -26 -81 6 -17 11 -41 11 -53 0 -24 25 -29 76 -13 16 5 53 14 82 20
192 41 243 54 244 64 0 4 -5 34 -12 67 -10 46 -17 60 -31 60 -25 0 -29 -11
-19 -53 9 -44 4 -48 -80 -67 -151 -33 -186 -40 -202 -40 -28 0 -22 35 17 94
59 88 85 175 85 287 0 53 -5 111 -11 130 -53 169 -167 288 -341 357 -30 12
-186 23 -233 16z"></path>
<path d="M2796 2033 c-12 -12 -6 -51 9 -63 23 -19 38 0 26 32 -11 29 -25 41
-35 31z"></path>
<path d="M1582 1928 c-27 -29 -44 -71 -51 -128 l-6 -45 -67 -5 c-74 -6 -117
-29 -132 -72 -15 -41 2 -80 59 -135 l54 -53 -24 -52 c-52 -111 -21 -188 74
-188 25 0 66 9 90 20 44 21 71 15 71 -15 0 -6 17 -29 38 -49 63 -64 109 -72
152 -26 27 29 35 49 48 125 7 40 7 40 62 46 69 8 88 16 123 47 49 46 28 116
-54 185 l-40 33 25 51 c55 109 23 189 -74 187 -27 0 -68 -9 -91 -19 l-42 -19
-21 29 c-12 17 -38 47 -59 68 -46 45 -100 51 -135 15z m110 -37 c18 -16 41
-43 51 -60 l18 -30 -43 -31 c-33 -24 -50 -30 -72 -26 -16 3 -42 6 -58 6 -29 0
-29 0 -22 48 10 72 41 122 75 122 10 0 33 -13 51 -29z m282 -82 c24 -19 27
-26 21 -62 -9 -47 -31 -103 -45 -112 -6 -3 -22 2 -38 13 -15 10 -35 22 -45 25
-9 4 -22 19 -28 34 -6 15 -16 36 -21 47 -13 25 5 42 62 60 61 19 64 19 94 -5z
m-178 -82 c6 -27 5 -28 -22 -21 -38 9 -44 13 -44 28 0 15 42 37 52 27 4 -3 10
-19 14 -34z m-268 -60 c3 -51 0 -61 -29 -97 -18 -22 -37 -40 -43 -40 -26 1
-106 94 -106 122 0 25 39 52 93 64 79 18 82 17 85 -49z m88 42 c3 -6 -5 -22
-19 -36 -14 -14 -30 -22 -36 -19 -12 8 -15 49 -4 59 10 11 51 8 59 -4z m144
-28 c65 -21 82 -46 88 -132 l4 -55 -48 -43 c-44 -39 -53 -43 -90 -38 -98 11
-141 57 -143 153 -1 37 4 46 49 88 27 25 57 46 67 45 10 0 43 -8 73 -18z m153
-69 c14 -16 14 -19 -2 -41 -23 -30 -41 -20 -41 25 0 38 17 45 43 16z m112 -84
c34 -37 45 -58 43 -77 -4 -34 -50 -58 -118 -63 l-55 -3 -3 55 c-3 49 1 60 30
98 18 23 38 42 44 42 7 0 33 -23 59 -52z m-475 -13 c3 -46 2 -47 -30 -30 -36
19 -36 22 -8 52 25 27 36 21 38 -22z m-17 -70 c33 -19 47 -34 52 -55 4 -17 11
-32 16 -35 38 -24 -33 -65 -112 -65 -39 0 -51 4 -59 21 -16 29 1 102 33 147
13 17 18 16 70 -13z m335 -22 c-2 -23 -8 -29 -35 -31 -39 -4 -43 12 -10 39 32
27 49 24 45 -8z m-202 -29 l39 -16 -24 -19 c-13 -10 -27 -19 -32 -19 -12 0
-40 56 -32 64 8 8 5 9 49 -10z m181 -41 c10 -4 12 -17 7 -52 -18 -128 -90
-147 -164 -44 -34 47 -34 48 20 87 29 21 43 24 79 20 24 -3 50 -8 58 -11z"></path>
<path d="M1652 1650 c-39 -24 -55 -62 -49 -114 8 -59 44 -89 107 -90 46 -1 55
3 81 32 31 34 38 78 19 126 -11 31 -65 66 -100 66 -14 0 -40 -9 -58 -20z m115
-42 c33 -31 32 -90 -3 -117 -34 -27 -68 -27 -105 0 -23 16 -29 28 -29 57 0 73
84 110 137 60z"></path>
<path d="M2826 1882 c-8 -13 8 -65 23 -70 9 -3 11 7 9 34 -3 36 -20 55 -32 36z"></path>
<path d="M446 1821 c-4 -6 0 -25 9 -42 21 -39 45 -25 29 18 -10 29 -28 40 -38
24z"></path>
<path d="M2855 1730 c-8 -12 16 -64 30 -65 15 0 18 44 5 61 -14 16 -26 18 -35
4z"></path>
<path d="M486 1683 c-10 -10 -7 -61 4 -68 6 -4 17 -4 25 -1 11 4 12 11 4 36
-12 32 -22 43 -33 33z"></path>
<path d="M2897 1583 c-13 -12 -7 -50 8 -63 27 -22 39 2 21 39 -18 33 -19 35
-29 24z"></path>
<path d="M519 1525 c-11 -11 4 -65 18 -65 10 0 13 9 11 32 -3 29 -17 45 -29
33z"></path>
<path d="M2925 1428 c-3 -8 -1 -27 5 -43 13 -35 33 -21 28 21 -3 30 -25 44
-33 22z"></path>
<path d="M547 1384 c-13 -13 -7 -41 12 -65 17 -21 20 -22 26 -7 13 33 -18 91
-38 72z"></path>
<path d="M2956 1281 c-10 -15 12 -61 29 -61 17 0 20 23 5 51 -11 20 -25 25
-34 10z"></path>
<path d="M580 1201 c0 -33 16 -49 32 -33 14 14 1 62 -17 62 -10 0 -15 -10 -15
-29z"></path>
<path d="M616 1082 c-10 -17 6 -72 21 -72 10 0 13 10 11 37 -3 35 -20 54 -32
35z"></path>
<path d="M643 924 c-3 -8 -1 -26 5 -40 22 -46 51 -20 33 29 -12 30 -29 35 -38
11z"></path>
<path d="M685 777 c-10 -25 -1 -62 15 -62 10 0 14 9 13 29 -3 36 -20 56 -28
33z"></path>
<path d="M3156 2418 c-20 -23 -36 -47 -36 -54 0 -27 23 -25 54 5 30 29 33 30
54 15 31 -21 28 -40 -13 -85 -24 -26 -35 -49 -35 -69 0 -17 4 -30 9 -30 5 0
32 26 60 58 67 76 70 113 11 166 -22 20 -46 36 -54 36 -8 0 -31 -19 -50 -42z"></path>
<path d="M3959 1993 c-1 -5 0 -43 1 -85 1 -69 0 -78 -20 -88 -14 -7 -87 -10
-218 -9 l-197 1 -3 -81 -3 -81 218 -2 218 -3 1 -82 c0 -46 3 -86 7 -89 3 -3
18 3 34 14 15 11 45 29 66 41 41 23 88 50 145 83 20 11 46 26 57 32 93 53 136
79 140 86 4 7 -67 60 -81 60 -3 0 -18 8 -32 18 -15 11 -52 33 -82 49 -108 59
-205 116 -221 130 -17 15 -28 17 -30 6z"></path>
<path d="M1845 745 c-28 -12 -142 -130 -259 -267 -27 -31 -58 -58 -70 -60 -13
-2 -20 -9 -18 -19 2 -15 -171 -219 -187 -219 -4 0 -18 11 -31 25 l-24 25 27
28 c15 16 27 35 27 44 0 17 -95 108 -112 108 -6 0 -26 -14 -46 -31 l-35 -31
-25 25 -25 26 32 37 33 37 -43 43 c-48 49 -86 57 -128 28 -14 -10 -33 -14 -50
-11 -45 9 -56 -12 -24 -45 34 -36 50 -35 89 3 l31 30 28 -23 28 -24 -33 -37
c-17 -20 -30 -40 -28 -44 1 -5 29 -32 61 -62 l58 -54 32 31 c39 38 60 40 81
10 15 -21 14 -24 -14 -53 -17 -17 -30 -36 -30 -42 0 -6 20 -27 44 -47 32 -26
54 -36 79 -36 33 0 47 14 253 243 119 133 242 268 273 299 59 61 61 88 6 63z"></path>
<path d="M1264 619 c-3 -6 5 -23 20 -37 20 -20 28 -24 38 -14 9 9 6 17 -12 37
-26 28 -35 31 -46 14z"></path>
<path d="M1374 518 c-7 -11 38 -58 57 -58 17 0 9 26 -14 48 -27 25 -33 27 -43
10z"></path>
</g>
</svg>