					<svg xmlns="http://www.w3.org/2000/svg" viewBox="0 0 204.9 192.9">
					  <path d="M76.8 135.5c-4.3 0-8.5 1.5-12 4.3a18.7 18.7 0 0 0-11.9-4.3c-5.5 0-10.8 2.4-14.6 6.7a22.8 22.8 0 0 0-4.8 18.6c2.2 14.8 16.7 26.7 30 31.9a3.7 3.7 0 0 0 2.7 0c13.4-5.2 28-17 30-32 1.1-7-.6-13.7-4.8-18.5-3.7-4.3-9-6.7-14.6-6.7zM89 159.7c-1.6 11.4-13.4 21.1-24.1 25.7-10.7-4.6-22.5-14.3-24.2-25.7-.7-5 .4-9.5 3.2-12.7a12 12 0 0 1 9-4.2 12 12 0 0 1 9.2 4.5 3.8 3.8 0 0 0 5.6 0 12 12 0 0 1 9.1-4.5A12 12 0 0 1 86 147c2.8 3.2 3.9 7.7 3.1 12.7zm107.4-90h-7.6V42c0-10-8.2-18.3-18.3-18.3h-155a8.2 8.2 0 0 1 0-16.4h151.3a3.7 3.7 0 1 0 0-7.3H15.5C7 0 0 7 0 15.5v134C0 159.8 8.2 168 18.3 168h5.3a3.7 3.7 0 1 0 0-7.3h-5.3c-6 0-11-5-11-11v-121c2.4 1.6 5.2 2.4 8.2 2.4h155c6 0 11 5 11 11v27.8h-32a8.5 8.5 0 0 0-8.5 8.5v35c0 4.7 3.8 8.5 8.5 8.5h32v27.8c0 6-5 11-11 11h-64.1a3.7 3.7 0 1 0 0 7.3h64c10.2 0 18.4-8.2 18.4-18.3v-27.8h7.6c4.7 0 8.5-3.8 8.5-8.5v-35c0-4.7-3.8-8.5-8.5-8.5zm1.2 43.6c0 .7-.6 1.2-1.2 1.2h-47c-.6 0-1.1-.5-1.1-1.2v-35c0-.7.5-1.2 1.2-1.2h46.9c.6 0 1.2.5 1.2 1.2zm-37.3-29.8c-2 0-3.7 1.7-3.7 3.7v17.2a3.7 3.7 0 1 0 7.3 0V87.2c0-2-1.6-3.7-3.6-3.7zm6.5-71.6H18.3a3.7 3.7 0 1 0 0 7.3h148.5a3.7 3.7 0 1 0 0-7.3z"/>
					</svg>